<svg width="177" height="275" viewBox="0 0 177 275" fill="none" xmlns="http://www.w3.org/2000/svg">
<path d="M14.9752 274.855C15.689 264.181 17.7232 253.514 15.2881 241.784C12.5738 247.293 10.2943 251.923 8.02473 256.553L6.78706 256.125C8.04568 249.732 9.20397 243.321 10.5831 236.956C14.7578 217.71 19.0833 198.502 23.1579 179.248C23.6013 177.15 26.1091 173.565 20.9088 173.016C20.5881 172.981 19.9892 170.182 20.4595 169.053C22.5709 163.956 25.0246 158.992 27.7814 153.053C18.9306 155.948 10.0799 158.853 1.21911 161.748C1.06477 161.5 0.91025 161.243 0.755909 160.996C3.26917 159.442 5.8133 157.937 8.27534 156.314C15.919 151.3 23.6549 146.414 31.0834 141.103C33.049 139.689 34.6337 137.081 35.3624 134.708C40.8579 116.639 46.4537 98.5887 51.296 80.3415C54.1486 69.58 59.5612 61.0843 68.1303 54.0837C75.8118 47.7986 82.9415 40.8431 90.9524 34.5224C92.3155 67.9237 78.7122 97.6456 68.7827 128.704C73.2671 128.345 77.4866 128.282 81.6161 127.64C92.1092 126.006 102.547 124.064 113.029 122.38C116.63 121.808 118.796 120.43 119.958 116.549C125.107 99.2362 130.658 82.0367 136.007 64.7807C138.649 56.2633 143.463 49.0181 148.477 41.7395C154.379 33.1752 159.389 23.9964 164.815 15.1003C167.887 10.066 171.02 5.06051 174.123 0.0355916C174.807 0.233692 175.49 0.441791 176.174 0.639891C175.89 6.11569 176.137 11.6822 175.22 17.049C172.916 30.5813 171.035 44.3062 167.234 57.4446C162.462 73.9604 155.93 89.9768 150.213 106.229C148.908 109.952 147.864 113.771 146.558 118.025C153.742 118.779 160.386 119.474 167.991 120.271C160.394 126.805 153.394 132.628 146.629 138.727C144.64 140.512 142.62 142.827 141.823 145.291C130.836 179.338 120.2 213.499 109.133 247.528C106.817 254.659 103.133 261.354 100.083 268.259C99.5415 268.178 98.9999 268.087 98.4584 268.007C97.581 261.861 96.7834 255.704 95.7962 249.571C94.8991 244.015 93.6032 238.527 92.8259 232.96C92.4036 229.967 92.0767 226.712 92.7867 223.839C98.3008 201.68 104.076 179.585 109.761 157.463C109.911 156.87 109.869 156.221 109.983 154.699C105.104 155.944 100.705 157.181 96.2411 158.169C86.5373 160.329 76.7471 162.12 67.1291 164.608C64.9088 165.187 62.2813 167.643 61.5091 169.817C52.5519 195.267 44.2086 220.937 35.0603 246.32C31.5403 256.093 26.3799 265.284 21.9743 274.743L14.9754 274.865L14.9752 274.855Z" fill="#E62200"/>
</svg>
