<svg width="1024" height="571" viewBox="0 0 1024 571" fill="none" xmlns="http://www.w3.org/2000/svg">
<path d="M395.796 455.183C398.867 454.948 401.304 455.604 403.107 457.151C405.003 458.69 406.065 460.949 406.293 463.927C406.35 464.672 406.318 465.47 406.196 466.322C406.159 467.073 406.07 467.735 405.926 468.308C404.702 468.215 403.342 468.178 401.846 468.199C400.343 468.127 398.568 468.169 396.52 468.326C392.519 468.632 388.499 469.314 384.461 470.371C380.416 471.336 376.55 472.194 372.864 472.944C371.1 478.04 369.513 482.982 368.101 487.77C366.681 492.465 365.466 496.771 364.455 500.686C363.537 504.594 362.813 507.972 362.282 510.821C361.844 513.663 361.632 515.785 361.646 517.188C369.063 515.029 376.544 513.1 384.09 511.399C391.728 509.692 399.761 508.235 408.186 507.029C409.331 508.532 410.3 510.19 411.094 512.001C411.981 513.805 412.506 515.778 412.67 517.918C412.713 518.477 412.759 519.081 412.809 519.733C412.859 520.384 412.816 521.043 412.679 521.709C410.066 521.815 407.314 521.932 404.422 522.059C401.537 522.28 397.768 522.568 393.115 522.924C390.044 523.159 387.116 523.43 384.331 523.737C381.647 524.129 378.919 524.572 376.149 525.065C373.378 525.558 370.429 526.158 367.3 526.865C364.265 527.565 360.818 528.391 356.959 529.341C352.55 527.994 348.096 524.216 343.596 518.007C344.921 514.536 346.72 509.297 348.993 502.29C351.351 495.183 354.279 485.739 357.777 473.957C353.489 472.975 350.566 470.858 349.007 467.608C349.437 467.107 350.743 466.445 352.927 465.623C355.104 464.708 357.792 463.753 360.992 462.759C362.11 459.023 363.032 455.77 363.756 453C364.573 450.223 365.265 447.643 365.831 445.259C366.391 442.783 366.864 440.406 367.252 438.13C367.725 435.754 368.138 433.195 368.49 430.453C365.218 430.517 362.591 429.828 360.609 428.389C358.62 426.856 357.525 424.787 357.326 422.181C357.269 421.436 357.295 420.545 357.402 419.507C357.603 418.462 357.815 417.557 358.037 416.791C359.92 416.928 361.702 416.979 363.384 416.944C365.16 416.901 367.443 416.773 370.235 416.56C376.098 416.111 381.578 415.552 386.675 414.881C391.765 414.117 396.343 413.392 400.409 412.707C404.568 412.014 408.126 411.415 411.083 410.908C414.032 410.307 416.298 409.947 417.88 409.826C420.021 409.662 422.014 410.633 423.86 412.738C425.706 414.844 427.204 417.912 428.355 421.942C425.449 421.884 423.061 421.879 421.193 421.928C419.418 421.971 417.832 422.045 416.436 422.152C411.318 422.543 406.639 423.182 402.401 424.068C398.249 424.854 394.24 425.675 390.374 426.533C389.88 427.413 389.31 428.533 388.666 429.893C388.114 431.245 387.369 433.128 386.43 435.54C385.491 437.952 384.319 440.99 382.915 444.654C381.603 448.312 379.987 452.882 378.067 458.364C381.56 457.535 384.832 456.864 387.882 456.35C391.017 455.735 393.655 455.346 395.796 455.183ZM511.574 411.504C511.974 413.065 512.245 414.167 512.388 414.811C512.617 415.355 512.771 416.139 512.849 417.163C513.084 420.234 512.607 423.172 511.417 425.978C510.314 428.683 508.641 430.683 506.4 431.978C504.347 429.608 501.903 427.642 499.069 426.08C496.228 424.425 493.136 423.164 489.793 422.297C486.537 421.329 483.165 420.698 479.679 420.403C476.193 420.108 472.822 420.085 469.565 420.334C466.308 420.583 463.258 421.097 460.416 421.876C457.659 422.555 455.2 423.445 453.038 424.547C450.962 425.548 449.322 426.75 448.119 428.153C447.009 429.548 446.518 431.083 446.646 432.758C447.081 434.784 448.498 436.782 450.895 438.752C453.285 440.628 456.187 442.466 459.601 444.264C463.008 445.969 466.74 447.649 470.798 449.304C474.949 450.952 479 452.515 482.951 453.991C487.868 455.861 492.123 457.642 495.716 459.333C499.301 460.931 502.3 462.807 504.711 464.963C507.116 467.026 508.987 469.457 510.324 472.256C511.662 475.056 512.487 478.503 512.8 482.597C513.163 487.344 512.714 491.871 511.452 496.18C510.183 500.396 508.131 504.156 505.295 507.462C502.552 510.761 499.104 513.412 494.951 515.415C490.806 517.51 486.081 518.761 480.776 519.167C475.565 519.565 469.874 519.205 463.704 518.086C457.534 516.967 451.69 515.214 446.172 512.828C440.754 510.528 436.142 507.745 432.335 504.479C428.614 501.113 426.6 497.429 426.294 493.428C426.152 491.566 426.482 489.154 427.285 486.191C428.181 483.221 429.904 480.047 432.454 476.669C432.947 479.439 434.688 482.629 437.679 486.238C440.763 489.84 445.174 493.06 450.914 495.897C456.261 498.483 461.686 500.268 467.19 501.251C472.78 502.134 477.949 502.394 482.695 502.03C487.906 501.632 492.091 500.656 495.248 499.104C498.406 497.552 500.847 495.821 502.573 493.91C504.292 491.907 505.453 489.946 506.055 488.028C506.657 486.11 506.962 484.589 506.969 483.465C506.734 481.611 505.715 479.91 503.911 478.363C502.194 476.716 499.879 475.208 496.966 473.84C494.139 472.371 490.847 470.938 487.089 469.541C483.332 468.143 479.435 466.756 475.398 465.38C469.336 463.223 464.079 461.192 459.627 459.286C455.261 457.279 451.593 455.22 448.624 453.107C445.74 450.894 443.547 448.534 442.044 446.028C440.635 443.515 439.803 440.583 439.546 437.233C439.148 432.022 440.352 426.968 443.16 422.073C445.969 417.178 450.258 413.293 456.029 410.418C458.907 408.887 462 407.714 465.308 406.9C468.708 406.078 472.037 405.542 475.294 405.293C481.436 404.823 487.503 405.202 493.494 406.428C499.485 407.655 505.511 409.347 511.574 411.504ZM528.72 477.308C528.222 470.793 528.479 464.362 529.491 458.013C530.589 451.563 532.32 445.44 534.685 439.643C537.042 433.753 539.951 428.335 543.41 423.39C546.956 418.345 550.877 413.926 555.173 410.134C559.563 406.335 564.292 403.305 569.361 401.045C574.423 398.692 579.7 397.306 585.19 396.886C591.611 396.395 596.693 397.363 600.436 399.791C604.272 402.212 606.375 405.843 606.745 410.682C606.888 412.543 606.754 414.472 606.346 416.469C606.03 418.459 605.435 420.47 604.561 422.503C603.772 424.435 602.795 426.335 601.627 428.203C600.459 430.071 599.134 431.717 597.652 433.141C595.204 432.954 593.028 432.044 591.125 430.411C589.214 428.685 587.934 426.63 587.283 424.246C590.334 421.298 592.68 418.31 594.32 415.283C596.047 412.155 596.817 409.382 596.632 406.962C596.319 402.868 593.603 401.016 588.485 401.408C586.344 401.571 584.146 402.208 581.891 403.316C579.722 404.325 577.534 405.709 575.329 407.469C573.123 409.229 570.989 411.311 568.927 413.715C566.957 416.113 565.145 418.732 563.49 421.573C551.978 441.175 546.967 460.701 548.455 480.151C548.981 487.037 550.475 492.492 552.936 496.516C555.397 500.54 558.424 502.789 562.017 503.263C565.948 502.027 570.824 499.079 576.645 494.422C582.467 489.764 588.751 483.807 595.497 476.552C596.499 477.411 597.132 478.346 597.396 479.355C594.968 483.098 592.436 486.708 589.801 490.186C587.165 493.664 584.508 496.862 581.829 499.782C579.244 502.694 576.634 505.281 573.998 507.542C571.456 509.796 569.065 511.57 566.824 512.865C555.27 513.561 546.269 510.927 539.822 504.961C533.375 498.996 529.674 489.778 528.72 477.308ZM615.748 508.841C611.181 507.88 607.964 506.816 606.096 505.648C604.321 504.473 603.359 502.909 603.21 500.954C603.096 499.466 603.354 497.34 603.985 494.577C604.616 491.814 605.584 488.557 606.889 484.807C608.279 480.956 609.92 476.712 611.812 472.074C613.796 467.429 616.036 462.437 618.529 457.098C616.102 457.19 613.912 457.311 611.957 457.46C610.089 457.51 608.55 457.581 607.34 457.673C607.792 456.235 609.281 454.904 611.809 453.681C614.336 452.458 617.712 451.31 621.936 450.238C625.102 443.912 628.523 437.846 632.197 432.043C635.965 426.232 639.769 420.886 643.607 416.005C647.439 411.032 651.317 406.663 655.242 402.9C659.159 399.043 662.947 395.945 666.606 393.606C666.649 392.947 666.653 392.385 666.617 391.92C666.675 391.448 666.696 391.118 666.682 390.932C667.985 390.833 669.731 391.027 671.922 391.514C674.205 391.995 676.406 392.622 678.525 393.396C680.736 394.163 682.672 394.998 684.332 395.9C686.079 396.703 687.07 397.423 687.306 398.06C684.648 403.692 682.243 412.02 680.091 423.043C677.931 433.973 676.448 447.004 675.64 462.136C675.459 465.894 675.364 470.161 675.355 474.935C675.439 479.703 675.705 485.018 676.154 490.881C676.31 492.928 676.471 495.022 676.634 497.163C676.798 499.303 677.062 501.529 677.426 503.842C677.247 503.949 677.065 504.01 676.878 504.024C676.692 504.038 676.32 504.067 675.762 504.109C674.459 504.209 672.905 504.094 671.102 503.764C669.398 503.52 667.684 503.136 665.959 502.613C664.334 502.175 662.888 501.631 661.622 500.979C660.448 500.32 659.7 499.722 659.378 499.185C659.193 497.982 659.054 496.776 658.961 495.566C658.876 494.449 658.783 493.24 658.683 491.937C658.242 486.167 657.98 480.29 657.896 474.305C657.906 468.314 658.18 462.115 658.72 455.708C657.41 455.715 655.681 455.754 653.534 455.824C651.379 455.802 648.949 455.847 646.243 455.961C643.63 456.067 640.785 456.191 637.706 456.333C634.714 456.375 631.772 456.459 628.88 456.587C626.967 460.946 625.193 465.294 623.56 469.631C621.919 473.875 620.56 478.145 619.485 482.439C618.244 487.027 617.283 491.594 616.601 496.139C616.012 500.677 615.728 504.911 615.748 508.841ZM663.212 420.824C663.485 419.493 663.768 417.692 664.063 415.423C664.443 413.054 664.77 410.595 665.043 408.047C662.78 409.063 660.292 410.798 657.578 413.252C654.957 415.699 652.239 418.715 649.425 422.3C646.696 425.785 643.909 429.742 641.066 434.172C638.308 438.502 635.665 443.104 633.136 447.977C640.903 446.728 649.758 445.629 659.702 444.681C660.147 440.716 660.643 436.793 661.188 432.914C661.82 428.934 662.495 424.904 663.212 420.824ZM787.523 409.348C787.915 414.467 786.986 419.452 784.736 424.304C782.579 429.15 779.449 433.508 775.346 437.379C771.328 441.15 766.467 444.283 760.76 446.779C755.147 449.267 749.083 450.761 742.569 451.259C740.243 451.437 738.36 451.301 736.921 450.849C735.569 450.297 733.987 449.201 732.177 447.561C728.3 458.061 725.2 467.706 722.877 476.495C720.64 485.184 718.99 493.595 717.927 501.726C714.327 501.159 711.328 499.891 708.93 497.921C706.54 496.045 704.294 493.596 702.19 490.574C702.986 488.735 703.924 486.323 705.007 483.338C706.089 480.354 707.4 476.696 708.941 472.366C710.475 467.943 712.227 462.707 714.198 456.659C716.255 450.511 718.656 443.354 721.401 435.187C722.613 431.444 723.674 428.18 724.584 425.396C725.494 422.612 726.279 420.024 726.939 417.634C727.591 415.15 728.154 412.72 728.627 410.344C729.194 407.96 729.743 405.344 730.274 402.495C726.006 404.226 722.083 406.164 718.503 408.31C715.016 410.449 712.141 412.635 709.878 414.867C708.998 414.373 708.049 413.603 707.033 412.557C706.11 411.505 705.227 410.355 704.383 409.109C703.531 407.77 702.773 406.424 702.108 405.071C701.443 403.718 701.021 402.487 700.843 401.377C703.399 399.309 706.617 397.331 710.498 395.443C714.379 393.555 718.556 391.878 723.031 390.412C727.498 388.854 732.127 387.564 736.916 386.542C741.798 385.513 746.473 384.828 750.94 384.486C756.245 384.08 761.091 384.412 765.478 385.48C769.859 386.456 773.631 388.039 776.794 390.231C779.957 392.423 782.457 395.133 784.296 398.362C786.134 401.592 787.21 405.253 787.523 409.348ZM761.394 394.498C757.858 394.769 754.25 395.325 750.57 396.169L752.437 398.553C751.599 399.834 750.575 401.738 749.364 404.264C748.153 406.791 746.842 409.839 745.43 413.411C744.012 416.889 742.439 420.801 740.712 425.145C739.078 429.482 737.322 434.063 735.445 438.887C742.703 438.331 749.261 437.175 755.117 435.416C760.966 433.564 765.896 431.315 769.906 428.668C774.001 425.921 777.091 422.877 779.176 419.535C781.353 416.185 782.303 412.696 782.026 409.067C781.655 404.228 779.731 400.49 776.254 397.854C772.769 395.126 767.815 394.007 761.394 394.498ZM840.882 421.132C843.953 420.897 846.39 421.553 848.193 423.1C850.089 424.64 851.152 426.899 851.379 429.877C851.436 430.622 851.404 431.42 851.282 432.271C851.246 433.023 851.156 433.685 851.012 434.258C849.788 434.164 848.428 434.128 846.932 434.149C845.429 434.077 843.654 434.119 841.606 434.275C837.605 434.581 833.585 435.263 829.547 436.321C825.502 437.286 821.637 438.143 817.95 438.893C816.187 443.989 814.599 448.932 813.187 453.72C811.767 458.415 810.552 462.72 809.541 466.636C808.623 470.544 807.899 473.922 807.368 476.771C806.93 479.613 806.718 481.735 806.732 483.138C814.149 480.979 821.63 479.05 829.176 477.349C836.814 475.641 844.847 474.184 853.273 472.978C854.417 474.482 855.387 476.14 856.18 477.951C857.067 479.755 857.593 481.728 857.756 483.868C857.799 484.426 857.845 485.031 857.895 485.683C857.945 486.334 857.902 486.993 857.765 487.658C855.153 487.765 852.4 487.882 849.508 488.009C846.623 488.23 842.854 488.518 838.201 488.874C835.13 489.109 832.202 489.38 829.418 489.687C826.733 490.079 824.006 490.522 821.235 491.015C818.465 491.507 815.515 492.107 812.387 492.815C809.351 493.515 805.904 494.34 802.045 495.291C797.636 493.943 793.182 490.165 788.682 483.957C790.008 480.486 791.807 475.247 794.079 468.24C796.437 461.132 799.365 451.688 802.863 439.907C798.576 438.925 795.652 436.808 794.093 433.558C794.523 433.057 795.83 432.395 798.013 431.573C800.19 430.657 802.878 429.703 806.078 428.709C807.197 424.973 808.118 421.72 808.842 418.95C809.659 416.173 810.351 413.593 810.917 411.209C811.477 408.733 811.95 406.356 812.338 404.08C812.811 401.704 813.224 399.145 813.576 396.403C810.304 396.466 807.678 395.778 805.695 394.338C803.706 392.806 802.612 390.736 802.412 388.131C802.355 387.386 802.381 386.495 802.489 385.457C802.689 384.412 802.901 383.507 803.123 382.741C805.006 382.877 806.788 382.928 808.47 382.893C810.246 382.851 812.529 382.723 815.321 382.51C821.184 382.061 826.664 381.501 831.761 380.831C836.851 380.067 841.429 379.342 845.495 378.657C849.654 377.964 853.212 377.364 856.169 376.857C859.118 376.257 861.384 375.897 862.966 375.776C865.107 375.612 867.1 376.583 868.946 378.688C870.792 380.793 872.29 383.861 873.441 387.892C870.535 387.833 868.147 387.829 866.279 387.878C864.504 387.92 862.918 387.995 861.522 388.102C856.404 388.493 851.726 389.132 847.488 390.018C843.335 390.803 839.326 391.625 835.46 392.482C834.966 393.363 834.397 394.483 833.752 395.843C833.2 397.195 832.455 399.078 831.516 401.49C830.577 403.901 829.406 406.94 828.001 410.604C826.69 414.262 825.073 418.831 823.153 424.314C826.646 423.485 829.918 422.814 832.968 422.299C836.103 421.685 838.741 421.296 840.882 421.132Z" fill="#B81B00"/>
<path d="M85.0637 404.601C85.7775 393.927 87.8116 383.26 85.3766 371.531C82.6623 377.039 80.3827 381.67 78.1132 386.3L76.8755 385.871C78.1342 379.479 79.2925 373.067 80.6716 366.702C84.8463 347.457 89.1718 328.248 93.2463 308.994C93.6898 306.896 96.1976 303.312 90.9972 302.762C90.6766 302.728 90.0776 299.928 90.548 298.8C92.6594 293.702 95.1131 288.738 97.8699 282.799C89.0191 285.694 80.1684 288.599 71.3076 291.494C71.1533 291.247 70.9987 290.99 70.8444 290.742C73.3577 289.188 75.9018 287.684 78.3638 286.06C86.0075 281.046 93.7434 276.16 101.172 270.85C103.137 269.435 104.722 266.827 105.451 264.454C110.946 246.386 116.542 228.335 121.384 210.088C124.237 199.327 129.65 190.831 138.219 183.83C145.9 177.545 153.03 170.59 161.041 164.269C162.404 197.67 148.801 227.392 138.871 258.45C143.356 258.092 147.575 258.028 151.705 257.386C162.198 255.753 172.635 253.81 183.118 252.127C186.718 251.554 188.884 250.176 190.047 246.295C195.195 228.983 200.746 211.783 206.096 194.527C208.738 186.01 213.552 178.765 218.566 171.486C224.467 162.922 229.478 153.743 234.903 144.847C237.976 139.812 241.109 134.807 244.212 129.782C244.895 129.98 245.579 130.188 246.263 130.386C245.978 135.862 246.225 141.429 245.309 146.796C243.005 160.328 241.124 174.053 237.323 187.191C232.55 203.707 226.019 219.723 220.301 235.976C218.996 239.699 217.953 243.518 216.647 247.771C223.831 248.526 230.474 249.22 238.079 250.017C230.482 256.551 223.483 262.374 216.718 268.473C214.729 270.258 212.709 272.574 211.912 275.038C200.924 309.085 190.289 343.246 179.221 377.274C176.905 384.406 173.221 391.101 170.172 398.005C169.63 397.925 169.088 397.834 168.547 397.753C167.669 391.608 166.872 385.451 165.885 379.317C164.988 373.762 163.692 368.274 162.914 362.706C162.492 359.713 162.165 356.459 162.875 353.586C168.389 331.426 174.165 309.332 179.849 287.209C179.999 286.617 179.958 285.967 180.071 284.445C175.192 285.69 170.793 286.927 166.33 287.915C156.626 290.075 146.836 291.866 137.218 294.354C134.997 294.933 132.37 297.389 131.598 299.563C122.64 325.014 114.297 350.683 105.149 376.067C101.629 385.839 96.4684 395.031 92.0628 404.489L85.0639 404.611L85.0637 404.601Z" fill="#B81B00"/>
<path d="M518.223 214.563C515.177 223.967 512.41 232.207 509.824 240.503C502.181 265.02 494.548 289.537 487.045 314.102C484.68 321.855 483.271 329.93 480.483 337.51C477.781 344.848 473.85 351.738 470.453 358.828C469.79 358.61 469.126 358.392 468.462 358.173C469.024 354.293 469.586 350.412 470.353 345.038C467.827 348.163 466.143 350.252 463.979 352.921C461.094 340.059 462.539 328.292 463.603 316.462C464.531 306.034 464.528 295.532 465.376 285.096C466.568 270.303 470.085 256.359 476.607 242.643C484.671 225.65 490.204 207.441 496.606 189.686C501.442 176.27 510.74 166.896 522.13 158.786C529.223 153.732 535.209 147.126 541.676 141.192C542.345 140.58 542.903 139.851 543.963 138.692C546.664 176.561 549.312 213.69 551.961 250.829C552.401 250.842 552.831 250.844 553.272 250.857C554.932 243.997 556.382 237.08 558.304 230.296C563.721 211.178 569.138 192.061 575.028 173.085C576.344 168.841 579.449 165.087 581.993 161.282C590.833 148.035 599.784 134.857 608.716 121.679C609.272 120.859 610.05 120.206 611.797 118.295C611.563 127.25 611.349 134.995 611.134 143.34C612.461 143.137 613.87 143.073 615.204 142.709C628.453 139.087 641.582 134.918 654.961 131.884C668.828 128.741 682.966 126.804 696.931 124.1C707.976 121.957 718.863 118.827 729.978 117.312C737.94 116.233 746.177 117.12 754.288 117.098C758.048 117.082 761.807 116.967 765.896 118.036C758.871 120.659 751.845 123.272 744.82 125.895C744.938 126.333 745.055 126.771 745.183 127.208L767.253 124.733L767.646 126.026C763.769 128.534 760.016 131.25 756.005 133.521C735.059 145.398 713.895 156.799 690.485 163.329C688.972 163.755 687.368 165.803 686.816 167.433C676.226 199.013 665.857 230.679 655.296 262.268C648.624 282.237 641.619 302.093 631.462 320.653C630.909 321.662 630.346 323.193 629.49 323.437C621.18 325.773 619.449 334.364 614.067 339.419C613.585 339.878 613.225 340.474 612.712 340.883C610.384 342.744 608.564 342.186 608.283 339.28C607.906 335.416 607.897 331.496 608.07 327.622C608.377 320.556 607.747 313.155 609.621 306.492C614.931 287.536 621.317 268.882 627.24 250.096C635.797 222.932 644.324 195.759 652.851 168.586C653.297 167.178 653.551 165.714 654.213 162.962C651.287 164.333 649.009 165.043 647.151 166.355C643.624 168.847 640.364 171.715 636.95 174.365C632.963 177.455 630.154 182.144 623.859 181.914C621.738 181.841 619.38 184.883 617.362 186.738C615.856 188.125 614.707 189.905 612.888 191.127C614.965 184.06 617.032 176.983 619.119 169.895C611.948 169.34 605.03 173.532 602.767 179.672C587.719 220.611 575.286 262.374 563.276 304.28C560.183 315.066 556.9 325.785 553.594 336.904C552.307 335.956 551.435 335.312 550.868 334.891C548.409 338.415 546.077 341.766 543.745 345.117C543.215 345.126 542.675 345.126 542.145 345.125C540.056 334.86 537.966 324.595 535.877 314.33C535.577 314.365 535.288 314.39 534.988 314.425C534.811 316.319 534.635 318.222 534.364 321.057C530.299 315.067 529.931 308.893 529.245 302.804C526.925 282.221 524.675 261.627 522.226 241.067C521.23 232.703 519.755 224.408 518.273 214.572L518.223 214.563Z" fill="#B81B00"/>
<path d="M782.289 324.351C785.476 321.835 788.744 319.398 791.839 316.773C796.402 312.903 800.944 308.983 805.334 304.916C811.475 299.208 815.178 291.902 817.34 283.983C824.362 258.267 831.174 232.504 837.945 206.722C843.309 186.265 848.492 165.761 853.895 144.724C844.941 147.991 836.006 151.247 826.207 154.819C827.265 153.56 827.712 152.792 828.363 152.291C834.512 147.593 842.221 144.028 846.537 138.021C854.212 127.326 866.056 126.329 876.459 121.837C878.574 120.92 880.792 120.261 883.257 119.378C882.671 118.468 882.199 117.736 881.664 116.885C896.469 113.056 911.392 113.656 926.325 114.875C932.595 115.386 939.018 115.494 945.065 116.999C950.771 118.419 956.365 120.922 961.498 123.863C969.216 128.289 971.607 136.358 972.519 144.464C975.793 173.321 966.991 199.058 950.27 222.074C935.493 242.415 917.002 259.15 896.155 273.236C872.401 289.283 847.075 302.327 820.392 312.704C809.762 316.84 798.934 320.48 788.168 324.248C786.429 324.859 784.52 324.962 782.686 325.294C782.56 324.976 782.435 324.669 782.309 324.351L782.289 324.351ZM851.106 264.571C855.112 263.141 858.163 262.607 860.617 261.094C877.697 250.595 893.546 238.376 907.07 223.628C916.237 213.636 924.436 202.612 932.021 191.338C938.874 181.146 943.566 169.753 944.165 157.12C944.341 153.437 944.188 150.419 939.077 150.948C937.739 151.092 936.228 149.918 934.866 149.222C933.13 148.332 931.568 147.039 929.765 146.36C918.671 142.213 907.024 141.896 895.392 141.899C885.861 141.896 885.864 142.096 882.545 151.335C881.982 152.895 881.238 154.398 880.796 155.986C873.576 181.826 866.346 207.666 859.216 233.535C856.498 243.404 854.041 253.338 851.116 264.571L851.106 264.571Z" fill="#B81B00"/>
<path d="M755.971 196.921C781.917 193.597 806.586 190.436 831.753 187.207C830.2 188.164 828.835 189.018 827.449 189.852C813.544 198.266 800.043 207.493 785.578 214.817C775.069 220.131 763.383 223.285 752.01 226.694C746.498 228.351 741.825 229.893 739.427 235.795C734.527 247.863 729.214 259.757 724.081 271.669C757.039 267.253 787.849 253.793 821.057 254.574C814.492 262.89 803.346 265.554 794.653 271.727C794.823 272.304 794.993 272.871 795.163 273.448C800.575 272.364 805.977 271.289 811.389 270.205C811.501 270.323 811.603 270.441 811.715 270.549C800.656 275.883 789.598 281.217 778.539 286.551C778.675 286.888 778.811 287.226 778.947 287.564C782.898 286.435 786.859 285.305 790.809 284.166C790.926 284.554 791.043 284.932 791.17 285.32C774.73 291.218 759.668 300.412 742.187 303.938C732.031 305.985 722.413 310.764 712.256 312.731C705.049 314.127 697.551 318.899 689.767 313.554C687.621 312.081 686.807 311.275 687.56 308.572C693.902 285.748 700.054 262.877 706.266 240.015C707.3 236.216 708.364 232.417 709.577 228.025C707.097 228.639 705.066 229.144 703.024 229.65C702.737 229.245 702.46 228.84 702.173 228.445C702.906 228.042 703.607 227.489 704.393 227.266C711.918 225.164 713.335 218.688 715.146 212.446C719.759 196.543 724.222 180.592 729.207 164.813C730.344 161.213 732.791 157.569 735.607 155.03C748.84 143.057 764.134 134.529 781.236 129.34C782.34 129.01 783.486 128.78 784.624 128.64C785.223 128.57 785.867 128.779 787.13 128.957C785.524 130.365 784.362 131.385 784.086 131.62C809.008 126.935 834.887 122.082 860.756 117.22C860.992 117.526 861.217 117.842 861.453 118.148C860.631 119.182 859.972 120.444 858.956 121.232C839.277 136.338 818.691 149.939 795.831 159.88C787.632 163.443 779.496 167.186 771.577 171.315C768.802 172.763 766.024 175.222 764.541 177.918C761.39 183.644 759.098 189.835 755.971 196.921Z" fill="#B81B00"/>
<path d="M431.91 356.691C427.529 349.776 421.908 345.184 420.365 338.119C418.799 330.936 418.21 323.535 417.078 315.423C415.333 317.434 413.496 318.786 412.678 320.601C408.748 329.281 401.389 334.55 394.123 339.968C390.796 342.446 387.448 344.915 384.244 347.551C376.09 354.265 367.416 356.426 357.893 350.612C352.545 347.354 346.951 344.312 342.23 340.273C339.286 337.754 337.772 333.55 336.363 331.304C337.454 327.935 338.352 325.529 339.029 323.057C341.615 313.64 344.392 304.26 346.627 294.76C352.492 269.804 358.197 244.81 363.781 219.789C365.144 213.664 365.08 207.144 367.028 201.249C368.405 197.095 371.639 193.278 374.793 190.042C381.17 183.5 388.045 177.429 394.768 171.231C396.205 169.905 397.887 168.846 400.582 166.819C400.639 170.108 401.071 172.511 400.66 174.758C398.119 188.425 395.708 202.139 392.644 215.695C386.117 244.593 379.139 273.389 372.572 302.268C371.587 306.586 371.208 311.243 371.664 315.626C372.264 321.346 374.546 322.587 379.13 319.866C391.81 312.344 401.875 302.217 410.357 290.237C420.391 276.06 425.698 259.774 431.389 243.723C437.032 227.812 441.296 211.405 447.181 195.59C449.283 189.932 453.835 184.892 458.148 180.416C464.111 174.231 470.898 168.832 477.359 163.128C479.073 161.618 480.899 160.226 482.674 158.785C483.257 158.925 483.839 159.064 484.422 159.204C483.807 165.796 484.035 172.593 482.436 178.932C477.747 197.377 472.164 215.597 467.274 233.995C465.285 241.491 464.743 249.381 462.512 256.791C459.902 265.458 455.604 273.615 453.055 282.29C446.249 305.483 440.005 328.825 433.521 352.112C433.267 353.037 432.892 353.923 431.91 356.691Z" fill="#B81B00"/>
<path d="M323.244 272.444C330.362 273.43 336.558 274.302 342.984 275.19C340.068 281.152 333.354 281.559 327.133 284.959C329.989 285.879 331.609 286.411 333.399 286.989C335.321 291.107 332.26 292.8 329.388 293.871C325.493 295.319 324.085 297.714 324.115 301.764C324.265 318.924 322.311 335.9 318.914 352.712C318.583 354.368 317.589 355.896 316.368 358.708C314.514 355.65 313.309 353.66 311.723 351.038C310.862 357.283 310.072 363.018 309.299 368.582C301.441 358.418 298.498 346.828 298.974 333.977C299.37 323.419 298.724 312.819 298.536 302.05C277.377 308.02 257.909 316.311 242.904 332.196C235.176 340.372 228.84 349.844 221.773 358.659C218.083 363.264 214.169 367.683 210.22 372.352C209.81 369.489 209.514 367.444 209.218 365.399C206.34 366.099 203.275 366.383 200.646 367.599C197.352 369.116 194.411 371.408 190.088 374.144C194.835 354.418 203.132 338.131 212.273 322.099C219.163 310.017 228.616 300.37 238.625 291.054C240.918 288.914 242.976 286.447 244.822 283.905C248.132 279.326 246.966 274.956 242.359 271.186C241.345 270.354 240.962 267.37 241.64 266.088C243.954 261.707 246.335 257.154 249.632 253.536C264.961 236.706 277.277 218.058 287.775 197.782C293.377 186.963 303.047 178.253 310.94 168.643C311.381 168.106 312.369 168.008 314.097 167.308C313.456 171.28 312.923 174.52 312.237 178.752C314.923 174.485 317.083 171.057 319.351 167.466C324.49 174.798 326.264 181.908 325.625 190.58C324.252 209.307 324.471 228.146 324.008 246.937C323.803 255.222 323.508 263.509 323.234 272.455L323.244 272.444ZM275.522 278.498C282.579 276.535 288.991 274.903 295.267 272.863C296.48 272.472 297.887 270.577 298.024 269.254C298.692 262.822 299.169 256.352 299.306 249.889C299.446 243.015 299.126 236.14 299.006 229.261C298.735 229.176 298.453 229.091 298.181 228.995C290.667 245.419 283.152 261.843 275.532 278.488L275.522 278.498Z" fill="#B81B00"/>
<path d="M167.405 45.43C164.872 45.43 162.908 44.7333 161.515 43.34C160.185 41.8833 159.52 40.1417 159.52 38.115C159.52 37.6083 159.583 37.0067 159.71 36.31C159.9 35.6133 160.122 35.0117 160.375 34.505C161.198 34.885 162.402 35.17 163.985 35.36C165.632 35.4867 167.532 35.55 169.685 35.55C172.915 35.55 176.557 35.4233 180.61 35.17C184.727 34.8533 188.653 34.5367 192.39 34.22C196.127 33.9033 199.42 33.6183 202.27 33.365C205.12 33.0483 206.957 32.89 207.78 32.89C210.123 32.89 211.802 33.7767 212.815 35.55C213.892 37.26 214.683 39.5717 215.19 42.485C213.543 42.3583 211.897 42.2633 210.25 42.2C208.667 42.0733 207.305 42.01 206.165 42.01C204.138 42.01 202.08 42.0733 199.99 42.2C197.963 42.3267 195.905 42.5167 193.815 42.77C192.928 44.6067 191.947 46.7917 190.87 49.325C189.793 51.795 188.717 54.3917 187.64 57.115C186.627 59.8383 185.645 62.5617 184.695 65.285C183.745 67.945 182.922 70.3517 182.225 72.505C180.832 76.685 179.597 80.5483 178.52 84.095C177.507 87.6417 176.588 90.9667 175.765 94.07C175.005 97.11 174.34 100.023 173.77 102.81C173.2 105.597 172.693 108.32 172.25 110.98C168.007 110.347 164.46 107.687 161.61 103C162.117 101.037 162.718 98.915 163.415 96.635C164.175 94.2917 165.03 91.6633 165.98 88.75C166.993 85.7733 168.165 82.4167 169.495 78.68C170.825 74.9433 172.345 70.7 174.055 65.95C174.688 64.1767 175.353 62.34 176.05 60.44C176.747 58.4767 177.412 56.545 178.045 54.645C178.742 52.745 179.343 50.9083 179.85 49.135C180.42 47.3617 180.895 45.7467 181.275 44.29C178.615 44.6067 176.082 44.8917 173.675 45.145C171.332 45.335 169.242 45.43 167.405 45.43ZM241.495 97.49C241.495 94.83 241.938 91.41 242.825 87.23C243.711 83.05 244.883 78.585 246.34 73.835C242.16 74.1517 237.948 74.5633 233.705 75.07C229.525 75.5767 225.883 75.8617 222.78 75.925C219.93 82.575 217.65 88.7183 215.94 94.355C214.293 99.9283 212.995 105.375 212.045 110.695C209.638 110.125 207.643 109.112 206.06 107.655C204.476 106.262 203.02 104.488 201.69 102.335C202.196 101.322 202.766 100.023 203.4 98.44C204.096 96.8567 204.888 94.9567 205.775 92.74C206.725 90.46 207.77 87.8317 208.91 84.855C210.113 81.815 211.475 78.3 212.995 74.31C210.905 73.4233 209.511 72.1883 208.815 70.605C209.131 70.3517 209.828 70.0983 210.905 69.845C212.045 69.5283 213.438 69.2117 215.085 68.895L216.32 65.855C217.65 62.435 218.726 59.5533 219.55 57.21C220.436 54.8667 221.165 52.5867 221.735 50.37C222.368 48.09 222.938 45.5883 223.445 42.865C224.015 40.1417 224.68 36.69 225.44 32.51C228.1 33.0167 230.506 34.1883 232.66 36.025C234.876 37.8617 236.776 40.0783 238.36 42.675C237.79 43.435 237.093 44.575 236.27 46.095C235.446 47.615 234.528 49.4517 233.515 51.605C232.565 53.695 231.52 56.07 230.38 58.73C229.24 61.3267 228.005 64.0817 226.675 66.995C230.601 66.4883 234.56 66.0133 238.55 65.57C242.603 65.1267 246.181 64.81 249.285 64.62C250.425 61.3267 251.596 58.1283 252.8 55.025C254.066 51.8583 255.301 48.9767 256.505 46.38C257.708 43.7833 258.848 41.5033 259.925 39.54C261.065 37.5767 262.078 36.12 262.965 35.17C263.598 35.2333 264.421 35.4867 265.435 35.93C266.511 36.31 267.588 36.785 268.665 37.355C269.741 37.925 270.723 38.5583 271.61 39.255C272.496 39.8883 273.098 40.49 273.415 41.06C272.275 42.1367 271.135 43.53 269.995 45.24C268.855 46.95 267.715 48.9133 266.575 51.13C265.498 53.3467 264.421 55.7533 263.345 58.35C262.268 60.9467 261.255 63.6383 260.305 66.425C261.571 67.565 262.205 68.99 262.205 70.7C262.205 71.9033 261.951 73.0117 261.445 74.025C260.875 73.8983 260.305 73.835 259.735 73.835C259.165 73.7717 258.563 73.7083 257.93 73.645C256.853 77.065 255.871 80.4533 254.985 83.81C254.098 87.1667 253.338 90.365 252.705 93.405C252.135 96.445 251.66 99.2317 251.28 101.765C250.963 104.298 250.805 106.42 250.805 108.13C250.805 108.763 250.805 109.27 250.805 109.65C250.868 110.03 250.931 110.347 250.995 110.6C249.601 110.537 248.588 110.283 247.955 109.84C247.321 109.46 246.846 109.017 246.53 108.51C246.213 108.067 245.928 107.592 245.675 107.085C245.421 106.642 245.01 106.293 244.44 106.04C243.996 105.85 243.585 105.407 243.205 104.71C242.825 104.013 242.508 103.222 242.255 102.335C242.001 101.448 241.811 100.562 241.685 99.675C241.558 98.7883 241.495 98.06 241.495 97.49ZM307.786 62.53C309.876 62.53 311.491 63.1 312.631 64.24C313.834 65.38 314.436 66.9633 314.436 68.99C314.436 69.4967 314.373 70.035 314.246 70.605C314.183 71.1117 314.088 71.555 313.961 71.935C313.138 71.8083 312.219 71.7133 311.206 71.65C310.193 71.5233 308.989 71.46 307.596 71.46C304.873 71.46 302.118 71.7133 299.331 72.22C296.544 72.6633 293.884 73.0433 291.351 73.36C289.894 76.7167 288.564 79.9783 287.361 83.145C286.158 86.2483 285.113 89.0983 284.226 91.695C283.403 94.2917 282.738 96.54 282.231 98.44C281.788 100.34 281.534 101.765 281.471 102.715C286.601 101.638 291.763 100.72 296.956 99.96C302.213 99.2 307.723 98.63 313.486 98.25C314.183 99.3267 314.753 100.498 315.196 101.765C315.703 103.032 315.956 104.393 315.956 105.85C315.956 106.23 315.956 106.642 315.956 107.085C315.956 107.528 315.893 107.972 315.766 108.415C313.993 108.352 312.124 108.288 310.161 108.225C308.198 108.225 305.633 108.225 302.466 108.225C300.376 108.225 298.381 108.257 296.481 108.32C294.644 108.447 292.776 108.605 290.876 108.795C288.976 108.985 286.949 109.238 284.796 109.555C282.706 109.872 280.331 110.252 277.671 110.695C274.758 109.555 271.939 106.768 269.216 102.335C270.293 100.055 271.781 96.6033 273.681 91.98C275.644 87.2933 278.114 81.055 281.091 73.265C278.241 72.3783 276.373 70.795 275.486 68.515C275.803 68.1983 276.721 67.8183 278.241 67.375C279.761 66.8683 281.629 66.3617 283.846 65.855C284.796 63.385 285.588 61.2317 286.221 59.395C286.918 57.5583 287.519 55.8483 288.026 54.265C288.533 52.6183 288.976 51.035 289.356 49.515C289.799 47.9317 290.211 46.2217 290.591 44.385C288.374 44.2583 286.633 43.6567 285.366 42.58C284.099 41.44 283.466 39.9833 283.466 38.21C283.466 37.7033 283.529 37.1017 283.656 36.405C283.846 35.7083 284.036 35.1067 284.226 34.6C285.493 34.79 286.696 34.9167 287.836 34.98C289.039 35.0433 290.591 35.075 292.491 35.075C296.481 35.075 300.218 34.98 303.701 34.79C307.184 34.5367 310.319 34.2833 313.106 34.03C315.956 33.7767 318.394 33.555 320.421 33.365C322.448 33.1117 323.999 32.985 325.076 32.985C326.533 32.985 327.831 33.745 328.971 35.265C330.111 36.785 330.966 38.9383 331.536 41.725C329.573 41.535 327.958 41.4083 326.691 41.345C325.488 41.2817 324.411 41.25 323.461 41.25C319.978 41.25 316.779 41.44 313.866 41.82C311.016 42.1367 308.261 42.485 305.601 42.865C305.221 43.435 304.778 44.1633 304.271 45.05C303.828 45.9367 303.226 47.1717 302.466 48.755C301.706 50.3383 300.756 52.3333 299.616 54.74C298.539 57.1467 297.209 60.155 295.626 63.765C298.033 63.385 300.281 63.1 302.371 62.91C304.524 62.6567 306.329 62.53 307.786 62.53Z" fill="#B81B00"/>
</svg>
