<svg width="18" height="16" viewBox="0 0 18 16" fill="none" xmlns="http://www.w3.org/2000/svg">
<g clip-path="url(#clip0_363_318)">
<path d="M10 0.999992C10 0.690617 9.85938 0.399992 9.61563 0.212492C9.37188 0.0249918 9.05625 -0.0437582 8.75625 0.0312418L3.13438 1.43749C2.46875 1.60312 2 2.20312 2 2.89062V14H1C0.446875 14 0 14.4469 0 15C0 15.5531 0.446875 16 1 16H10V0.999992ZM8 7.99999C8 8.55312 7.66563 8.99999 7.25 8.99999C6.83437 8.99999 6.5 8.55312 6.5 7.99999C6.5 7.44687 6.83437 6.99999 7.25 6.99999C7.66563 6.99999 8 7.44687 8 7.99999ZM11 3.99999H14V15C14 15.5531 14.4469 16 15 16H17C17.5531 16 18 15.5531 18 15C18 14.4469 17.5531 14 17 14H16V3.99999C16 2.89687 15.1031 1.99999 14 1.99999H11V3.99999Z" fill="white"/>
</g>
<defs>
<clipPath id="clip0_363_318">
<rect width="18" height="16" fill="white"/>
</clipPath>
</defs>
</svg>
