<svg width="18" height="16" viewBox="0 0 18 16" fill="none" xmlns="http://www.w3.org/2000/svg">
<g clip-path="url(#clip0_363_268)">
<path d="M10 1.00001C10 0.690632 9.85938 0.400007 9.61563 0.212507C9.37188 0.0250071 9.05625 -0.0437429 8.75625 0.0312571L3.13438 1.43751C2.46875 1.60313 2 2.20313 2 2.89063V14H1C0.446875 14 0 14.4469 0 15C0 15.5531 0.446875 16 1 16H10V1.00001ZM8 8.00001C8 8.55313 7.66563 9.00001 7.25 9.00001C6.83437 9.00001 6.5 8.55313 6.5 8.00001C6.5 7.44688 6.83437 7.00001 7.25 7.00001C7.66563 7.00001 8 7.44688 8 8.00001ZM11 4.00001H14V15C14 15.5531 14.4469 16 15 16H17C17.5531 16 18 15.5531 18 15C18 14.4469 17.5531 14 17 14H16V4.00001C16 2.89688 15.1031 2.00001 14 2.00001H11V4.00001Z" fill="black"/>
</g>
<defs>
<clipPath id="clip0_363_268">
<rect width="18" height="16" fill="white"/>
</clipPath>
</defs>
</svg>
