<svg width="12" height="16" viewBox="0 0 12 16" fill="none" xmlns="http://www.w3.org/2000/svg">
<g clip-path="url(#clip0_363_358)">
<path d="M1.25312 14.5969L0.903125 14.8781C0.803125 14.9563 0.68125 15 0.55625 15C0.25 15 0 14.75 0 14.4438V6C0 2.6875 2.6875 0 6 0C9.3125 0 12 2.6875 12 6V14.4438C12 14.75 11.75 15 11.4438 15C11.3188 15 11.1969 14.9563 11.0969 14.8781L10.7469 14.5969C10.3281 14.2625 9.72187 14.3156 9.36875 14.7188L8.41562 15.8125C8.3125 15.9312 8.15937 16 8 16C7.84063 16 7.69062 15.9312 7.58437 15.8125L6.75313 14.8594C6.35625 14.4031 5.64687 14.4031 5.24687 14.8594L4.41563 15.8125C4.3125 15.9312 4.15937 16 4 16C3.84063 16 3.69062 15.9312 3.58437 15.8125L2.63125 14.7188C2.27812 14.3156 1.67187 14.2625 1.25312 14.5969ZM5 6C5 5.73478 4.89464 5.48043 4.70711 5.29289C4.51957 5.10536 4.26522 5 4 5C3.73478 5 3.48043 5.10536 3.29289 5.29289C3.10536 5.48043 3 5.73478 3 6C3 6.26522 3.10536 6.51957 3.29289 6.70711C3.48043 6.89464 3.73478 7 4 7C4.26522 7 4.51957 6.89464 4.70711 6.70711C4.89464 6.51957 5 6.26522 5 6ZM8 7C8.26522 7 8.51957 6.89464 8.70711 6.70711C8.89464 6.51957 9 6.26522 9 6C9 5.73478 8.89464 5.48043 8.70711 5.29289C8.51957 5.10536 8.26522 5 8 5C7.73478 5 7.48043 5.10536 7.29289 5.29289C7.10536 5.48043 7 5.73478 7 6C7 6.26522 7.10536 6.51957 7.29289 6.70711C7.48043 6.89464 7.73478 7 8 7Z" fill="#E62200"/>
</g>
<defs>
<clipPath id="clip0_363_358">
<rect width="12" height="16" fill="white"/>
</clipPath>
</defs>
</svg>
