<svg width="16" height="16" viewBox="0 0 16 16" fill="none" xmlns="http://www.w3.org/2000/svg">
<path d="M1 3C0.446875 3 0 3.44687 0 4C0 4.55313 0.446875 5 1 5H7.5V3H1ZM6 9C5.44687 9 5 9.44687 5 10C5 10.5531 5.44687 11 6 11H8C8.55313 11 9 10.5531 9 10C9 9.44687 8.55313 9 8 9H6ZM4 7C4 7.55313 4.44687 8 5 8H6.5C7.05313 8 7.5 7.55313 7.5 7C7.5 6.44687 7.05313 6 6.5 6H5C4.44687 6 4 6.44687 4 7ZM7 12C6.44687 12 6 12.4469 6 13C6 13.5531 6.44687 14 7 14H9C9.55313 14 10 13.5531 10 13C10 12.4469 9.55313 12 9 12H7ZM9.75 9H9.73125C9.9 9.29375 10 9.63438 10 10C10 10.4125 9.875 10.7938 9.6625 11.1125C10.4406 11.3844 11 12.1281 11 13C11 13.3656 10.9031 13.7063 10.7312 14H11C13.7625 14 16 11.7625 16 9V7.07188C16 5.74688 15.4719 4.475 14.5344 3.5375L14.1719 3.175C13.4219 2.42187 12.4031 2 11.3438 2H10.5C9.39688 2 8.5 2.89688 8.5 4V6.75C8.5 7.44063 9.05937 8 9.75 8C10.4406 8 11 7.44063 11 6.75V5C11 4.725 11.225 4.5 11.5 4.5C11.775 4.5 12 4.725 12 5V6.75C12 7.99375 10.9937 9 9.75 9Z" fill="black"/>
</svg>
