<svg width="14" height="16" viewBox="0 0 14 16" fill="none" xmlns="http://www.w3.org/2000/svg">
<g clip-path="url(#clip0_363_278)">
<path d="M11.5 4C11.5 5.3875 10.7063 6.60937 9.50001 7.325V8C9.50001 8.55313 9.05313 9 8.50001 9H5.50001C4.94688 9 4.50001 8.55313 4.50001 8V7.325C3.29376 6.60625 2.50001 5.38437 2.50001 4C2.50001 1.79063 4.51563 0 7.00001 0C9.48438 0 11.5 1.79063 11.5 4ZM5.25001 5.5C5.51522 5.5 5.76958 5.39464 5.95711 5.20711C6.14465 5.01957 6.25001 4.76522 6.25001 4.5C6.25001 4.23478 6.14465 3.98043 5.95711 3.79289C5.76958 3.60536 5.51522 3.5 5.25001 3.5C4.98479 3.5 4.73044 3.60536 4.5429 3.79289C4.35537 3.98043 4.25001 4.23478 4.25001 4.5C4.25001 4.76522 4.35537 5.01957 4.5429 5.20711C4.73044 5.39464 4.98479 5.5 5.25001 5.5ZM9.75001 4.5C9.75001 4.23478 9.64465 3.98043 9.45712 3.79289C9.26958 3.60536 9.01523 3.5 8.75001 3.5C8.48479 3.5 8.23044 3.60536 8.0429 3.79289C7.85537 3.98043 7.75001 4.23478 7.75001 4.5C7.75001 4.76522 7.85537 5.01957 8.0429 5.20711C8.23044 5.39464 8.48479 5.5 8.75001 5.5C9.01523 5.5 9.26958 5.39464 9.45712 5.20711C9.64465 5.01957 9.75001 4.76522 9.75001 4.5ZM0.106258 8.55313C0.353133 8.05938 0.953133 7.85937 1.44688 8.10625L7.00001 10.8813L12.5531 8.10625C13.0469 7.85937 13.6469 8.05938 13.8938 8.55313C14.1406 9.04688 13.9406 9.64688 13.4469 9.89375L9.23751 12L13.45 14.1062C13.9438 14.3531 14.1438 14.9531 13.8969 15.4469C13.65 15.9406 13.05 16.1406 12.5563 15.8938L7.00001 13.1187L1.44688 15.8938C0.953133 16.1406 0.353133 15.9406 0.106258 15.4469C-0.140617 14.9531 0.0593831 14.3531 0.553133 14.1062L4.76251 12L0.553133 9.89375C0.0593831 9.64688 -0.140617 9.04688 0.106258 8.55313Z" fill="black"/>
</g>
<defs>
<clipPath id="clip0_363_278">
<rect width="14" height="16" fill="white"/>
</clipPath>
</defs>
</svg>
