<svg width="18" height="16" viewBox="0 0 18 16" fill="none" xmlns="http://www.w3.org/2000/svg">
<path d="M2 2C0.896875 2 0 2.89688 0 4V6C0 6.275 0.23125 6.49063 0.490625 6.58125C1.07812 6.78438 1.5 7.34375 1.5 8C1.5 8.65625 1.07812 9.21562 0.490625 9.41875C0.23125 9.50937 0 9.725 0 10V12C0 13.1031 0.896875 14 2 14H16C17.1031 14 18 13.1031 18 12V10C18 9.725 17.7687 9.50937 17.5094 9.41875C16.9219 9.21562 16.5 8.65625 16.5 8C16.5 7.34375 16.9219 6.78438 17.5094 6.58125C17.7687 6.49063 18 6.275 18 6V4C18 2.89688 17.1031 2 16 2H2ZM4 5.5V10.5C4 10.775 4.225 11 4.5 11H13.5C13.775 11 14 10.775 14 10.5V5.5C14 5.225 13.775 5 13.5 5H4.5C4.225 5 4 5.225 4 5.5ZM3 5C3 4.44687 3.44687 4 4 4H14C14.5531 4 15 4.44687 15 5V11C15 11.5531 14.5531 12 14 12H4C3.44687 12 3 11.5531 3 11V5Z" fill="black"/>
</svg>
