<svg width="20" height="16" viewBox="0 0 20 16" fill="none" xmlns="http://www.w3.org/2000/svg">
<g clip-path="url(#clip0_363_346)">
<path d="M16.675 1.01561C18.7031 2.66249 20 5.18124 20 7.99999C20 10.8187 18.7031 13.3344 16.675 14.9844C16.3531 15.2469 15.8812 15.1969 15.6187 14.875C15.3562 14.5531 15.4062 14.0812 15.7281 13.8187C17.4219 12.4437 18.5 10.35 18.5 7.99999C18.5 5.64999 17.4219 3.55624 15.7281 2.17811C15.4062 1.91561 15.3594 1.44374 15.6187 1.12186C15.8781 0.799985 16.3531 0.75311 16.675 1.01249V1.01561ZM14.7844 3.34374C16.1344 4.44374 17 6.12186 17 7.99999C17 9.87811 16.1344 11.5562 14.7844 12.6562C14.4625 12.9187 13.9906 12.8687 13.7281 12.5469C13.4656 12.225 13.5156 11.7531 13.8375 11.4906C14.8531 10.6656 15.5 9.40936 15.5 7.99999C15.5 6.59061 14.8531 5.33436 13.8375 4.50624C13.5156 4.24374 13.4687 3.77186 13.7281 3.44999C13.9875 3.12811 14.4625 3.08124 14.7844 3.34061V3.34374ZM12.8938 5.67186C13.5656 6.22186 14 7.05936 14 7.99999C14 8.94061 13.5656 9.77811 12.8938 10.3281C12.5719 10.5906 12.1 10.5406 11.8375 10.2187C11.575 9.89686 11.625 9.42499 11.9469 9.16249C12.2844 8.88749 12.5 8.46874 12.5 7.99999C12.5 7.53124 12.2844 7.11249 11.9469 6.83436C11.625 6.57186 11.5781 6.09999 11.8375 5.77811C12.0969 5.45624 12.5719 5.40936 12.8938 5.66874V5.67186ZM9.40938 1.08749C9.76875 1.24999 10 1.60624 10 1.99999V14C10 14.3937 9.76875 14.75 9.40938 14.9125C9.05 15.075 8.62813 15.0094 8.33438 14.7469L4.11875 11H2C0.896875 11 0 10.1031 0 8.99999V6.99999C0 5.89686 0.896875 4.99999 2 4.99999H4.11875L8.33438 1.25311C8.62813 0.99061 9.05 0.92811 9.40938 1.08749Z" fill="white"/>
</g>
<defs>
<clipPath id="clip0_363_346">
<rect width="20" height="16" fill="white"/>
</clipPath>
</defs>
</svg>
