<svg width="18" height="16" viewBox="0 0 18 16" fill="none" xmlns="http://www.w3.org/2000/svg">
<path d="M9.40938 1.08751C9.76875 1.25001 10 1.60626 10 2.00001V14C10 14.3938 9.76875 14.75 9.40938 14.9125C9.05 15.075 8.62813 15.0094 8.33438 14.7469L4.11875 11H2C0.896875 11 0 10.1031 0 9.00001V7.00001C0 5.89689 0.896875 5.00001 2 5.00001H4.11875L8.33438 1.25314C8.62813 0.990637 9.05 0.928137 9.40938 1.08751ZM13.2812 5.21876L15 6.93751L16.7188 5.21876C17.0125 4.92501 17.4875 4.92501 17.7781 5.21876C18.0688 5.51251 18.0719 5.98751 17.7781 6.27814L16.0594 7.99689L17.7781 9.71564C18.0719 10.0094 18.0719 10.4844 17.7781 10.775C17.4844 11.0656 17.0094 11.0688 16.7188 10.775L15 9.05626L13.2812 10.775C12.9875 11.0688 12.5125 11.0688 12.2219 10.775C11.9313 10.4813 11.9281 10.0063 12.2219 9.71564L13.9406 7.99689L12.2219 6.27814C11.9281 5.98439 11.9281 5.50939 12.2219 5.21876C12.5156 4.92814 12.9906 4.92501 13.2812 5.21876Z" fill="white"/>
</svg>
