<svg width="18" height="16" viewBox="0 0 18 16" fill="none" xmlns="http://www.w3.org/2000/svg">
<path d="M9.40938 1.0875C9.76875 1.25 10 1.60625 10 2V14C10 14.3937 9.76875 14.75 9.40938 14.9125C9.05 15.075 8.62813 15.0094 8.33438 14.7469L4.11875 11H2C0.896875 11 0 10.1031 0 9V7C0 5.89687 0.896875 5 2 5H4.11875L8.33438 1.25312C8.62813 0.990622 9.05 0.928122 9.40938 1.0875ZM13.2812 5.21875L15 6.9375L16.7188 5.21875C17.0125 4.925 17.4875 4.925 17.7781 5.21875C18.0688 5.5125 18.0719 5.9875 17.7781 6.27812L16.0594 7.99687L17.7781 9.71562C18.0719 10.0094 18.0719 10.4844 17.7781 10.775C17.4844 11.0656 17.0094 11.0687 16.7188 10.775L15 9.05625L13.2812 10.775C12.9875 11.0687 12.5125 11.0687 12.2219 10.775C11.9313 10.4812 11.9281 10.0062 12.2219 9.71562L13.9406 7.99687L12.2219 6.27812C11.9281 5.98437 11.9281 5.50937 12.2219 5.21875C12.5156 4.92812 12.9906 4.925 13.2812 5.21875Z" fill="black"/>
</svg>
