<svg width="20" height="16" viewBox="0 0 20 16" fill="none" xmlns="http://www.w3.org/2000/svg">
<g clip-path="url(#clip0_363_296)">
<path d="M16.675 1.01563C18.7031 2.6625 20 5.18125 20 8C20 10.8188 18.7031 13.3344 16.675 14.9844C16.3531 15.2469 15.8812 15.1969 15.6187 14.875C15.3562 14.5531 15.4062 14.0813 15.7281 13.8188C17.4219 12.4438 18.5 10.35 18.5 8C18.5 5.65 17.4219 3.55625 15.7281 2.17813C15.4062 1.91563 15.3594 1.44375 15.6187 1.12188C15.8781 0.800001 16.3531 0.753126 16.675 1.0125V1.01563ZM14.7844 3.34375C16.1344 4.44375 17 6.12188 17 8C17 9.87813 16.1344 11.5563 14.7844 12.6563C14.4625 12.9188 13.9906 12.8688 13.7281 12.5469C13.4656 12.225 13.5156 11.7531 13.8375 11.4906C14.8531 10.6656 15.5 9.40938 15.5 8C15.5 6.59063 14.8531 5.33438 13.8375 4.50625C13.5156 4.24375 13.4687 3.77188 13.7281 3.45C13.9875 3.12813 14.4625 3.08125 14.7844 3.34063V3.34375ZM12.8938 5.67188C13.5656 6.22188 14 7.05938 14 8C14 8.94063 13.5656 9.77813 12.8938 10.3281C12.5719 10.5906 12.1 10.5406 11.8375 10.2188C11.575 9.89688 11.625 9.425 11.9469 9.1625C12.2844 8.8875 12.5 8.46875 12.5 8C12.5 7.53125 12.2844 7.1125 11.9469 6.83438C11.625 6.57188 11.5781 6.1 11.8375 5.77813C12.0969 5.45625 12.5719 5.40938 12.8938 5.66875V5.67188ZM9.40938 1.0875C9.76875 1.25 10 1.60625 10 2V14C10 14.3938 9.76875 14.75 9.40938 14.9125C9.05 15.075 8.62813 15.0094 8.33438 14.7469L4.11875 11H2C0.896875 11 0 10.1031 0 9V7C0 5.89688 0.896875 5 2 5H4.11875L8.33438 1.25313C8.62813 0.990626 9.05 0.928126 9.40938 1.0875Z" fill="black"/>
</g>
<defs>
<clipPath id="clip0_363_296">
<rect width="20" height="16" fill="white"/>
</clipPath>
</defs>
</svg>
